<svg width="48" height="48" viewBox="0 0 48 48" fill="none" xmlns="http://www.w3.org/2000/svg">
    <path d="M29.0331 24.5454H18.967C18.4329 24.5454 18 24.9783 18 25.5124V29.5784C18 30.1124 18.4329 30.5454 18.967 30.5454H29.0331C29.5671 30.5454 30.0001 30.1124 30.0001 29.5784V25.5124C30.0001 24.9783 29.5671 24.5454 29.0331 24.5454Z" stroke="#333333" stroke-width="1.25" stroke-miterlimit="10"/>
    <path d="M35.0358 39.8334C35.0258 40.1023 35.0702 40.3704 35.1662 40.6218C35.2623 40.8731 35.408 41.1025 35.5947 41.2962C35.7814 41.49 36.0052 41.6441 36.2528 41.7493C36.5004 41.8546 36.7667 41.9088 37.0358 41.9088C37.3049 41.9088 37.5711 41.8546 37.8188 41.7493C38.0664 41.6441 38.2902 41.49 38.4769 41.2962C38.6636 41.1025 38.8093 40.8731 38.9054 40.6218C39.0014 40.3704 39.0457 40.1023 39.0358 39.8334V35.6827C39.0352 35.4178 38.9849 35.1552 38.8875 34.9088C37.8022 35.9829 36.4843 36.793 35.0358 37.2762V39.8334Z" stroke="#333333" stroke-width="1.25" stroke-miterlimit="10"/>
    <path d="M8.96426 35.6827V39.8334C8.95431 40.1023 8.99867 40.3704 9.0947 40.6218C9.19072 40.8731 9.33644 41.1025 9.52314 41.2962C9.70984 41.49 9.93369 41.6441 10.1813 41.7493C10.4289 41.8546 10.6952 41.9088 10.9643 41.9088C11.2333 41.9088 11.4996 41.8546 11.7472 41.7493C11.9948 41.6441 12.2187 41.49 12.4054 41.2962C12.5921 41.1025 12.7378 40.8731 12.8338 40.6218C12.9299 40.3704 12.9742 40.1023 12.9643 39.8334V37.2762C11.5157 36.793 10.1978 35.9829 9.11251 34.9088C9.01514 35.1552 8.96486 35.4178 8.96426 35.6827Z" stroke="#333333" stroke-width="1.25" stroke-miterlimit="10"/>
    <path d="M38.4196 17.3903C38.3053 17.3805 38.1954 17.3547 38.0787 17.3547H9.92155C9.80488 17.3547 9.69495 17.3805 9.58063 17.3903C8.5262 17.4934 7.54847 17.9872 6.83965 18.7746C6.13082 19.562 5.74218 20.5861 5.75012 21.6455V27.009C5.74852 28.4598 6.0383 29.8962 6.60228 31.2329C7.16626 32.5696 7.99294 33.7794 9.0333 34.7906C10.1677 35.9026 11.5418 36.7398 13.0501 37.238C14.0602 37.568 15.1161 37.7361 16.1787 37.7361H31.8216C32.8841 37.7361 33.9401 37.568 34.9501 37.238C36.4585 36.7398 37.8326 35.9026 38.9669 34.7906C40.0073 33.7794 40.834 32.5696 41.398 31.2329C41.9619 29.8962 42.2517 28.4598 42.2501 27.009V21.6455C42.2581 20.5861 41.8694 19.562 41.1606 18.7746C40.4518 17.9872 39.474 17.4934 38.4196 17.3903V17.3903Z" stroke="#333333" stroke-width="1.25" stroke-miterlimit="10"/>
    <path d="M37.2522 14.2781C36.9732 13.5669 36.7059 12.9189 36.5143 12.5275C35.4331 10.3193 32.6557 6.09122 29.2143 6.09122H18.7857C15.3443 6.09122 12.5669 10.3193 11.4857 12.5275C11.2941 12.9189 11.0268 13.5669 10.7478 14.2781" stroke="#333333" stroke-width="1.25" stroke-miterlimit="10"/>
    <path d="M8.87855 13.0638H7.83569C7.27718 13.0796 6.74683 13.3126 6.35736 13.7132C5.96789 14.1138 5.75 14.6505 5.75 15.2093C5.75 15.768 5.96789 16.3047 6.35736 16.7053C6.74683 17.106 7.27718 17.3389 7.83569 17.3547H8.87855C9.14378 17.3537 9.4062 17.3003 9.6507 17.1975C9.91224 16.4785 10.3398 15.3179 10.7478 14.2782C10.5833 13.9194 10.3203 13.6148 9.98932 13.3999C9.65838 13.1849 9.27317 13.0683 8.87855 13.0638V13.0638Z" stroke="#333333" stroke-width="1.25" stroke-miterlimit="10"/>
    <path d="M10.7477 14.2781C10.3397 15.3178 9.91217 16.4784 9.65063 17.1974" stroke="#333333" stroke-width="1.25" stroke-miterlimit="10"/>
    <path d="M38.3493 17.1974C38.0877 16.4784 37.6602 15.3179 37.2522 14.2781" stroke="#333333" stroke-width="1.25" stroke-miterlimit="10"/>
    <path d="M39.1214 17.3547H40.1643C40.7228 17.3389 41.2532 17.106 41.6426 16.7053C42.0321 16.3047 42.25 15.768 42.25 15.2093C42.25 14.6505 42.0321 14.1138 41.6426 13.7132C41.2532 13.3126 40.7228 13.0796 40.1643 13.0638H39.1214C38.7268 13.0683 38.3416 13.1849 38.0107 13.3999C37.6797 13.6148 37.4167 13.9194 37.2522 14.2782C37.6602 15.3179 38.0877 16.4784 38.3493 17.1975C38.5938 17.3003 38.8562 17.3537 39.1214 17.3547Z" stroke="#333333" stroke-width="1.25" stroke-miterlimit="10"/>
    <path d="M12 28.0912C13.933 28.0912 15.5 26.5242 15.5 24.5912C15.5 22.6582 13.933 21.0912 12 21.0912C10.067 21.0912 8.5 22.6582 8.5 24.5912C8.5 26.5242 10.067 28.0912 12 28.0912Z" stroke="#333333" stroke-width="1.25" stroke-miterlimit="10"/>
    <path d="M36 28.0912C37.933 28.0912 39.5 26.5242 39.5 24.5912C39.5 22.6582 37.933 21.0912 36 21.0912C34.067 21.0912 32.5 22.6582 32.5 24.5912C32.5 26.5242 34.067 28.0912 36 28.0912Z" stroke="#333333" stroke-width="1.25" stroke-miterlimit="10"/>
</svg>
