<svg width="48" height="48" viewBox="0 0 48 48" fill="none" xmlns="http://www.w3.org/2000/svg">
    <path d="M15.533 24.5H10.467C9.93294 24.5 9.5 24.9329 9.5 25.467V27.5784C9.5 28.1124 9.93294 28.5454 10.467 28.5454H15.533C16.0671 28.5454 16.5 28.1124 16.5 27.5784V25.467C16.5 24.9329 16.0671 24.5 15.533 24.5Z" stroke="#333333" stroke-width="1.25" stroke-miterlimit="10"/>
    <path d="M37.533 24.5H32.467C31.9329 24.5 31.5 24.9329 31.5 25.467V27.5784C31.5 28.1124 31.9329 28.5454 32.467 28.5454H37.533C38.0671 28.5454 38.5 28.1124 38.5 27.5784V25.467C38.5 24.9329 38.0671 24.5 37.533 24.5Z" stroke="#333333" stroke-width="1.25" stroke-miterlimit="10"/>
    <path d="M35.0358 40.8334C35.0258 41.1023 35.0702 41.3704 35.1662 41.6218C35.2623 41.8731 35.408 42.1025 35.5947 42.2962C35.7814 42.49 36.0052 42.6441 36.2528 42.7493C36.5004 42.8546 36.7667 42.9088 37.0358 42.9088C37.3049 42.9088 37.5711 42.8546 37.8188 42.7493C38.0664 42.6441 38.2902 42.49 38.4769 42.2962C38.6636 42.1025 38.8093 41.8731 38.9054 41.6218C39.0014 41.3704 39.0457 41.1023 39.0358 40.8334V36.6827C39.0352 36.4178 38.9849 36.1552 38.8875 35.9088C37.8022 36.9829 36.4843 37.793 35.0358 38.2762V40.8334Z" stroke="#333333" stroke-width="1.25" stroke-miterlimit="10"/>
    <path d="M8.96426 36.6827V40.8334C8.95431 41.1023 8.99867 41.3704 9.0947 41.6218C9.19072 41.8731 9.33644 42.1025 9.52314 42.2962C9.70984 42.49 9.93369 42.6441 10.1813 42.7493C10.4289 42.8546 10.6952 42.9088 10.9643 42.9088C11.2333 42.9088 11.4996 42.8546 11.7472 42.7493C11.9948 42.6441 12.2187 42.49 12.4054 42.2962C12.5921 42.1025 12.7378 41.8731 12.8338 41.6218C12.9299 41.3704 12.9742 41.1023 12.9643 40.8334V38.2762C11.5157 37.793 10.1978 36.9829 9.11251 35.9088C9.01514 36.1552 8.96486 36.4178 8.96426 36.6827Z" stroke="#333333" stroke-width="1.25" stroke-miterlimit="10"/>
    <path d="M38.4196 20.3903C38.3053 20.3805 38.1954 20.3547 38.0787 20.3547H9.92155C9.80488 20.3547 9.69495 20.3805 9.58063 20.3903C8.5262 20.4934 7.54847 20.9872 6.83965 21.7746C6.13082 22.562 5.74218 23.5861 5.75012 24.6455V28.009C5.74852 29.4598 6.0383 30.8962 6.60228 32.2329C7.16626 33.5696 7.99294 34.7794 9.0333 35.7906C10.1677 36.9026 11.5418 37.7398 13.0501 38.238C14.0602 38.568 15.1161 38.7361 16.1787 38.7361H31.8216C32.8841 38.7361 33.9401 38.568 34.9501 38.238C36.4585 37.7398 37.8326 36.9026 38.9669 35.7906C40.0073 34.7794 40.834 33.5696 41.398 32.2329C41.9619 30.8962 42.2517 29.4598 42.2501 28.009V24.6455C42.2581 23.5861 41.8694 22.562 41.1606 21.7746C40.4518 20.9872 39.474 20.4934 38.4196 20.3903Z" stroke="#333333" stroke-width="1.25" stroke-miterlimit="10"/>
    <path d="M37.2522 17.2781C36.9732 16.5669 36.7059 15.9189 36.5143 15.5275C35.4331 13.3193 32.6557 9.09122 29.2143 9.09122H18.7857C15.3443 9.09122 12.5669 13.3193 11.4857 15.5275C11.2941 15.9189 11.0268 16.5669 10.7478 17.2781" stroke="#333333" stroke-width="1.25" stroke-miterlimit="10"/>
    <path d="M8.87855 16.0638H7.83569C7.27718 16.0796 6.74683 16.3126 6.35736 16.7132C5.96789 17.1138 5.75 17.6505 5.75 18.2093C5.75 18.768 5.96789 19.3047 6.35736 19.7053C6.74683 20.106 7.27718 20.3389 7.83569 20.3547H8.87855C9.14378 20.3537 9.4062 20.3003 9.6507 20.1975C9.91224 19.4785 10.3398 18.3179 10.7478 17.2782C10.5833 16.9194 10.3203 16.6148 9.98932 16.3999C9.65838 16.1849 9.27317 16.0683 8.87855 16.0638V16.0638Z" stroke="#333333" stroke-width="1.25" stroke-miterlimit="10"/>
    <path d="M10.7477 17.2781C10.3397 18.3178 9.91217 19.4784 9.65063 20.1974" stroke="#333333" stroke-width="1.25" stroke-miterlimit="10"/>
    <path d="M38.3493 20.1974C38.0877 19.4784 37.6602 18.3179 37.2522 17.2781" stroke="#333333" stroke-width="1.25" stroke-miterlimit="10"/>
    <path d="M39.1214 20.3547H40.1643C40.7228 20.3389 41.2532 20.106 41.6426 19.7053C42.0321 19.3047 42.25 18.768 42.25 18.2093C42.25 17.6505 42.0321 17.1138 41.6426 16.7132C41.2532 16.3126 40.7228 16.0796 40.1643 16.0638H39.1214C38.7268 16.0683 38.3416 16.1849 38.0107 16.3999C37.6797 16.6148 37.4167 16.9194 37.2522 17.2782C37.6602 18.3179 38.0877 19.4784 38.3493 20.1975C38.5938 20.3003 38.8562 20.3537 39.1214 20.3547Z" stroke="#333333" stroke-width="1.25" stroke-miterlimit="10"/>
    <path d="M27.5 9H20.5L21.5 1.5H26.5L27.5 9Z" stroke="#333333" stroke-width="1.25" stroke-linecap="round" stroke-linejoin="round"/>
</svg>