<svg xmlns="http://www.w3.org/2000/svg" width="48" height="48" fill="none" xmlns:v="https://vecta.io/nano" class="ng-scope">
    <path fill-rule="evenodd" d="M24 35.027A13.94 13.94 0 0 1 15.374 38c-7.732 0-14-6.268-14-14s6.268-14 14-14A13.94 13.94 0 0 1 24 12.973 13.94 13.94 0 0 1 32.627 10c7.732 0 14 6.268 14 14s-6.268 14-14 14A13.94 13.94 0 0 1 24 35.027zm-.968-.832c-2.132 1.604-4.784 2.555-7.658 2.555-7.042 0-12.75-5.708-12.75-12.75s5.708-12.75 12.75-12.75 12.75 5.708 12.75 12.75a12.7 12.7 0 0 1-1.265 5.544c-1.515-1.576-2.235-3.4-2.235-5.544a9.25 9.25 0 0 0-18.5 0 9.25 9.25 0 0 0 9.25 9.25 9.21 9.21 0 0 0 5.425-1.757 14.07 14.07 0 0 0 2.233 2.702zm-2.859-3.794A13.94 13.94 0 0 1 18.627 24a13.94 13.94 0 0 1 1.546-6.401C18.836 16.595 17.174 16 15.374 16a8 8 0 1 0 0 16c1.8 0 3.462-.595 4.799-1.599zm.969-11.945A12.7 12.7 0 0 0 19.877 24c0 7.042 5.708 12.75 12.75 12.75s12.75-5.708 12.75-12.75-5.708-12.75-12.75-12.75c-2.874 0-5.526.951-7.658 2.555a14.07 14.07 0 0 1 2.233 2.702 9.21 9.21 0 0 1 5.425-1.757 9.25 9.25 0 1 1 0 18.5 9.25 9.25 0 0 1-9.25-9.25c0-2.052-.812-4.064-2.235-5.544zm6.686-.858A13.94 13.94 0 0 1 29.374 24a13.94 13.94 0 0 1-1.546 6.401C29.165 31.405 30.826 32 32.627 32a8 8 0 1 0 0-16c-1.8 0-3.462.595-4.799 1.599z" fill="#333">
    </path>
</svg>