<svg width="48" height="48" viewBox="0 0 48 48" fill="none" xmlns="http://www.w3.org/2000/svg">
    <path d="M33 27.1746C33.6922 27.1746 34.3689 27.3799 34.9445 27.7644C35.5201 28.149 35.9687 28.6957 36.2336 29.3352C36.4985 29.9747 36.5678 30.6785 36.4327 31.3574C36.2977 32.0363 35.9644 32.66 35.4749 33.1495C34.9854 33.6389 34.3617 33.9723 33.6828 34.1073C33.0039 34.2424 32.3001 34.1731 31.6606 33.9082C31.0211 33.6433 30.4744 33.1947 30.0899 32.6191C29.7053 32.0435 29.5 31.3668 29.5 30.6746C29.5 29.7463 29.8687 28.8561 30.5251 28.1997C31.1815 27.5433 32.0717 27.1746 33 27.1746V27.1746ZM15 27.1746C15.6922 27.1746 16.3689 27.3799 16.9445 27.7644C17.5201 28.149 17.9687 28.6957 18.2336 29.3352C18.4985 29.9747 18.5678 30.6785 18.4327 31.3574C18.2977 32.0363 17.9644 32.66 17.4749 33.1495C16.9854 33.6389 16.3618 33.9723 15.6828 34.1073C15.0039 34.2424 14.3001 34.1731 13.6606 33.9082C13.0211 33.6433 12.4744 33.1947 12.0899 32.6191C11.7053 32.0435 11.5 31.3668 11.5 30.6746C11.5 29.7463 11.8687 28.8561 12.5251 28.1997C13.1815 27.5433 14.0717 27.1746 15 27.1746V27.1746Z" stroke="#333333" stroke-width="1.25" stroke-miterlimit="10"/>
    <path d="M41 14.1746C41 9.80703 37.4266 5.67459 33.059 5.67459H14.941C10.5735 5.67459 7 9.80703 7 14.1746V38.1746H41V14.1746Z" stroke="#333333" stroke-width="1.25" stroke-miterlimit="10"/>
    <path d="M34.7499 40.323C34.708 40.7885 34.8369 41.2533 35.1126 41.6307C35.3249 41.8505 35.5793 42.0252 35.8606 42.1446C36.1419 42.264 36.4444 42.3255 36.7499 42.3255C37.0555 42.3255 37.358 42.264 37.6393 42.1446C37.9206 42.0252 38.175 41.8505 38.3873 41.6307C38.663 41.2533 38.7918 40.7885 38.7499 40.323V38.1746H34.7499V40.323Z" stroke="#333333" stroke-width="1.25" stroke-miterlimit="10"/>
    <path d="M9.49994 40.323C9.45804 40.7885 9.58693 41.2533 9.86255 41.6307C10.0749 41.8505 10.3293 42.0252 10.6106 42.1446C10.8919 42.264 11.1944 42.3255 11.4999 42.3255C11.8055 42.3255 12.108 42.264 12.3893 42.1446C12.6706 42.0252 12.925 41.8505 13.1373 41.6307C13.413 41.2533 13.5418 40.7885 13.4999 40.323V38.1746H9.49994V40.323Z" stroke="#333333" stroke-width="1.25" stroke-miterlimit="10"/>
    <path d="M15 34.1746C16.933 34.1746 18.5 32.6076 18.5 30.6746C18.5 28.7416 16.933 27.1746 15 27.1746C13.067 27.1746 11.5 28.7416 11.5 30.6746C11.5 32.6076 13.067 34.1746 15 34.1746Z" stroke="#333333" stroke-width="1.25" stroke-miterlimit="10"/>
    <path d="M33 34.1746C34.933 34.1746 36.5 32.6076 36.5 30.6746C36.5 28.7416 34.933 27.1746 33 27.1746C31.067 27.1746 29.5 28.7416 29.5 30.6746C29.5 32.6076 31.067 34.1746 33 34.1746Z" stroke="#333333" stroke-width="1.25" stroke-miterlimit="10"/>
    <path d="M7.5 23.5H40.5" stroke="#333333" stroke-width="1.25" stroke-miterlimit="10"/>
    <path d="M7.5 13.5H40.5" stroke="#333333" stroke-width="1.25" stroke-miterlimit="10"/>
</svg>