<svg width="48" height="48" viewBox="0 0 48 48" fill="none" xmlns="http://www.w3.org/2000/svg">
    <path d="M15 28C15.529 28 16.0461 28.1569 16.4859 28.4507C16.9258 28.7446 17.2686 29.1623 17.471 29.6511C17.6734 30.1398 17.7264 30.6775 17.6232 31.1964C17.52 31.7152 17.2653 32.1917 16.8912 32.5658C16.5172 32.9398 16.0406 33.1946 15.5218 33.2978C15.003 33.401 14.4652 33.348 13.9765 33.1456C13.4878 32.9431 13.0701 32.6003 12.7762 32.1605C12.4823 31.7207 12.3254 31.2036 12.3254 30.6746C12.3254 29.9652 12.6072 29.2849 13.1088 28.7834C13.6104 28.2818 14.2907 28 15 28V28Z" stroke="#333333" stroke-width="1.25" stroke-miterlimit="10"/>
    <path d="M33 28C33.529 28 34.0461 28.1569 34.4859 28.4507C34.9258 28.7446 35.2686 29.1623 35.471 29.6511C35.6734 30.1398 35.7264 30.6775 35.6232 31.1964C35.52 31.7152 35.2653 32.1917 34.8912 32.5658C34.5172 32.9398 34.0406 33.1946 33.5218 33.2978C33.003 33.401 32.4652 33.348 31.9765 33.1456C31.4878 32.9431 31.0701 32.6003 30.7762 32.1605C30.4823 31.7207 30.3254 31.2036 30.3254 30.6746C30.3254 29.9652 30.6072 29.2849 31.1088 28.7834C31.6104 28.2818 32.2907 28 33 28V28Z" stroke="#333333" stroke-width="1.25" stroke-miterlimit="10"/>
    <path d="M41 13.1746C41 8.80703 37.4266 4.67459 33.059 4.67459H14.941C10.5735 4.67459 7 8.80703 7 13.1746V37.1746H41V13.1746Z" stroke="#333333" stroke-width="1.25" stroke-miterlimit="10"/>
    <path d="M7.5 24.5H40.5" stroke="#333333" stroke-width="1.25" stroke-miterlimit="10"/>
    <path d="M7.5 12.5H40.5" stroke="#333333" stroke-width="1.25" stroke-miterlimit="10"/>
    <path d="M24 12.5V24.5" stroke="#333333" stroke-width="1.25" stroke-miterlimit="10"/>
    <path d="M16.5 37.5L9.5 43.5" stroke="#333333" stroke-width="1.25" stroke-linecap="round" stroke-linejoin="round"/>
    <path d="M31.5 37.5L38.5 43.5" stroke="#333333" stroke-width="1.25" stroke-linecap="round" stroke-linejoin="round"/>
    <path d="M12 41.5H36" stroke="#333333" stroke-width="1.25" stroke-miterlimit="10"/>
</svg>